<?xml version="1.0" encoding="utf-8" standalone="no"?>
<!DOCTYPE svg PUBLIC "-//W3C//DTD SVG 1.1//EN"
  "http://www.w3.org/Graphics/SVG/1.1/DTD/svg11.dtd">
<svg xmlns:xlink="http://www.w3.org/1999/xlink" width="504pt" height="360pt" viewBox="0 0 504 360" xmlns="http://www.w3.org/2000/svg" version="1.1">
 <metadata>
  <rdf:RDF xmlns:dc="http://purl.org/dc/elements/1.1/" xmlns:cc="http://creativecommons.org/ns#" xmlns:rdf="http://www.w3.org/1999/02/22-rdf-syntax-ns#">
   <cc:Work>
    <dc:type rdf:resource="http://purl.org/dc/dcmitype/StillImage"/>
    <dc:date>2022-05-11T00:30:32.547338</dc:date>
    <dc:format>image/svg+xml</dc:format>
    <dc:creator>
     <cc:Agent>
      <dc:title>Matplotlib v3.5.1, https://matplotlib.org/</dc:title>
     </cc:Agent>
    </dc:creator>
   </cc:Work>
  </rdf:RDF>
 </metadata>
 <defs>
  <style type="text/css">*{stroke-linejoin: round; stroke-linecap: butt}</style>
 </defs>
 <g id="figure_1">
  <g id="patch_1">
   <path d="M 0 360 
L 504 360 
L 504 0 
L 0 0 
z
" style="fill: #ffffff"/>
  </g>
  <g id="axes_1">
   <g id="patch_2">
    <path d="M 63 320.4 
L 453.6 320.4 
L 453.6 43.2 
L 63 43.2 
z
" style="fill: #ffffff"/>
   </g>
   <g id="PolyCollection_1">
    <path d="M 80.754545 43.2 
L 80.754545 43.2 
L 89.631818 114.566301 
L 98.509091 169.57869 
L 107.386364 211.349907 
L 116.263636 242.594413 
L 125.140909 265.619485 
L 134.018182 282.338119 
L 142.895455 294.300765 
L 151.772727 302.736784 
L 160.65 308.600778 
L 169.527273 312.619254 
L 178.404545 315.334518 
L 187.281818 317.143842 
L 196.159091 318.333042 
L 205.036364 319.104133 
L 213.913636 319.59748 
L 222.790909 319.908994 
L 231.668182 320.10316 
L 240.545455 320.222648 
L 249.422727 320.295262 
L 258.3 320.338849 
L 267.177273 320.364697 
L 276.054545 320.379844 
L 284.931818 320.388617 
L 293.809091 320.39364 
L 302.686364 320.396483 
L 311.563636 320.398076 
L 320.440909 320.398958 
L 329.318182 320.399441 
L 338.195455 320.399703 
L 347.072727 320.399844 
L 355.95 320.399919 
L 364.827273 320.399958 
L 373.704545 320.399978 
L 382.581818 320.399989 
L 391.459091 320.399995 
L 400.336364 320.399997 
L 409.213636 320.399999 
L 418.090909 320.399999 
L 426.968182 320.4 
L 435.845455 320.4 
L 435.845455 319.324125 
L 435.845455 319.324125 
L 426.968182 318.925108 
L 418.090909 318.39643 
L 409.213636 317.703196 
L 400.336364 316.803745 
L 391.459091 315.649208 
L 382.581818 314.183355 
L 373.704545 312.342812 
L 364.827273 310.057767 
L 355.95 307.253269 
L 347.072727 303.851175 
L 338.195455 299.772793 
L 329.318182 294.942234 
L 320.440909 289.290337 
L 311.563636 282.759072 
L 302.686364 275.306158 
L 293.809091 266.909611 
L 284.931818 257.571864 
L 276.054545 247.323084 
L 267.177273 236.223308 
L 258.3 224.363085 
L 249.422727 211.862377 
L 240.545455 198.86763 
L 231.668182 185.547051 
L 222.790909 172.084279 
L 213.913636 158.670942 
L 205.036364 145.498386 
L 196.159091 132.749375 
L 187.281818 120.590252 
L 178.404545 109.164167 
L 169.527273 98.585825 
L 160.65 88.938239 
L 151.772727 80.271277 
L 142.895455 72.602442 
L 134.018182 65.919311 
L 125.140909 60.183469 
L 116.263636 55.335432 
L 107.386364 51.300142 
L 98.509091 47.992453 
L 89.631818 45.322469 
L 80.754545 43.2 
z
" clip-path="url(#p318a4356af)" style="fill: #ffff00"/>
   </g>
   <g id="PolyCollection_2">
    <path d="M 80.754545 43.2 
L 80.754545 43.2 
L 89.631818 91.867785 
L 98.509091 134.269616 
L 107.386364 170.657103 
L 116.263636 201.41548 
L 125.140909 227.028363 
L 134.018182 248.040402 
L 142.895455 265.024253 
L 151.772727 278.551487 
L 160.65 289.169382 
L 169.527273 297.383873 
L 178.404545 303.648526 
L 187.281818 308.358834 
L 196.159091 311.85111 
L 205.036364 314.404662 
L 213.913636 316.246418 
L 222.790909 317.556954 
L 231.668182 318.477137 
L 240.545455 319.114797 
L 249.422727 319.550992 
L 258.3 319.84559 
L 267.177273 320.042074 
L 276.054545 320.171511 
L 284.931818 320.255751 
L 293.809091 320.309923 
L 302.686364 320.344355 
L 311.563636 320.365988 
L 320.440909 320.379426 
L 329.318182 320.387682 
L 338.195455 320.392699 
L 347.072727 320.395716 
L 355.95 320.39751 
L 364.827273 320.398567 
L 373.704545 320.399183 
L 382.581818 320.399538 
L 391.459091 320.399742 
L 400.336364 320.399857 
L 409.213636 320.399921 
L 418.090909 320.399957 
L 426.968182 320.399977 
L 435.845455 320.399988 
L 435.845455 320.360038 
L 435.845455 320.360038 
L 426.968182 320.339431 
L 418.090909 320.309017 
L 409.213636 320.264568 
L 400.336364 320.200258 
L 391.459091 320.108157 
L 382.581818 319.97762 
L 373.704545 319.794554 
L 364.827273 319.540571 
L 355.95 319.192042 
L 347.072727 318.719074 
L 338.195455 318.084472 
L 329.318182 317.242766 
L 320.440909 316.139377 
L 311.563636 314.710085 
L 302.686364 312.880913 
L 293.809091 310.568604 
L 284.931818 307.681831 
L 276.054545 304.123284 
L 267.177273 299.792714 
L 258.3 294.590963 
L 249.422727 288.4249 
L 240.545455 281.213113 
L 231.668182 272.89204 
L 222.790909 263.42215 
L 213.913636 252.793747 
L 205.036364 241.031739 
L 196.159091 228.198977 
L 187.281818 214.397601 
L 178.404545 199.768082 
L 169.527273 184.485732 
L 160.65 168.754972 
L 151.772727 152.801118 
L 142.895455 136.860853 
L 134.018182 121.171567 
L 125.140909 105.960587 
L 116.263636 91.435063 
L 107.386364 77.773357 
L 98.509091 65.118218 
L 89.631818 53.57306 
L 80.754545 43.2 
z
" clip-path="url(#p318a4356af)" style="fill: #008000"/>
   </g>
   <g id="matplotlib.axis_1">
    <g id="xtick_1">
     <g id="line2d_1">
      <defs>
       <path id="m59323976d5" d="M 0 0 
L 0 3.5 
" style="stroke: #000000; stroke-width: 0.8"/>
      </defs>
      <g>
       <use xlink:href="#m59323976d5" x="80.754545" y="320.4" style="stroke: #000000; stroke-width: 0.8"/>
      </g>
     </g>
     <g id="text_1">
      <!-- 0 -->
      <g transform="translate(77.573295 334.998438)scale(0.1 -0.1)">
       <defs>
        <path id="DejaVuSans-30" d="M 2034 4250 
Q 1547 4250 1301 3770 
Q 1056 3291 1056 2328 
Q 1056 1369 1301 889 
Q 1547 409 2034 409 
Q 2525 409 2770 889 
Q 3016 1369 3016 2328 
Q 3016 3291 2770 3770 
Q 2525 4250 2034 4250 
z
M 2034 4750 
Q 2819 4750 3233 4129 
Q 3647 3509 3647 2328 
Q 3647 1150 3233 529 
Q 2819 -91 2034 -91 
Q 1250 -91 836 529 
Q 422 1150 422 2328 
Q 422 3509 836 4129 
Q 1250 4750 2034 4750 
z
" transform="scale(0.015625)"/>
       </defs>
       <use xlink:href="#DejaVuSans-30"/>
      </g>
     </g>
    </g>
    <g id="xtick_2">
     <g id="line2d_2">
      <g>
       <use xlink:href="#m59323976d5" x="151.772727" y="320.4" style="stroke: #000000; stroke-width: 0.8"/>
      </g>
     </g>
     <g id="text_2">
      <!-- 1 -->
      <g transform="translate(148.591477 334.998438)scale(0.1 -0.1)">
       <defs>
        <path id="DejaVuSans-31" d="M 794 531 
L 1825 531 
L 1825 4091 
L 703 3866 
L 703 4441 
L 1819 4666 
L 2450 4666 
L 2450 531 
L 3481 531 
L 3481 0 
L 794 0 
L 794 531 
z
" transform="scale(0.015625)"/>
       </defs>
       <use xlink:href="#DejaVuSans-31"/>
      </g>
     </g>
    </g>
    <g id="xtick_3">
     <g id="line2d_3">
      <g>
       <use xlink:href="#m59323976d5" x="222.790909" y="320.4" style="stroke: #000000; stroke-width: 0.8"/>
      </g>
     </g>
     <g id="text_3">
      <!-- 2 -->
      <g transform="translate(219.609659 334.998438)scale(0.1 -0.1)">
       <defs>
        <path id="DejaVuSans-32" d="M 1228 531 
L 3431 531 
L 3431 0 
L 469 0 
L 469 531 
Q 828 903 1448 1529 
Q 2069 2156 2228 2338 
Q 2531 2678 2651 2914 
Q 2772 3150 2772 3378 
Q 2772 3750 2511 3984 
Q 2250 4219 1831 4219 
Q 1534 4219 1204 4116 
Q 875 4013 500 3803 
L 500 4441 
Q 881 4594 1212 4672 
Q 1544 4750 1819 4750 
Q 2544 4750 2975 4387 
Q 3406 4025 3406 3419 
Q 3406 3131 3298 2873 
Q 3191 2616 2906 2266 
Q 2828 2175 2409 1742 
Q 1991 1309 1228 531 
z
" transform="scale(0.015625)"/>
       </defs>
       <use xlink:href="#DejaVuSans-32"/>
      </g>
     </g>
    </g>
    <g id="xtick_4">
     <g id="line2d_4">
      <g>
       <use xlink:href="#m59323976d5" x="293.809091" y="320.4" style="stroke: #000000; stroke-width: 0.8"/>
      </g>
     </g>
     <g id="text_4">
      <!-- 3 -->
      <g transform="translate(290.627841 334.998438)scale(0.1 -0.1)">
       <defs>
        <path id="DejaVuSans-33" d="M 2597 2516 
Q 3050 2419 3304 2112 
Q 3559 1806 3559 1356 
Q 3559 666 3084 287 
Q 2609 -91 1734 -91 
Q 1441 -91 1130 -33 
Q 819 25 488 141 
L 488 750 
Q 750 597 1062 519 
Q 1375 441 1716 441 
Q 2309 441 2620 675 
Q 2931 909 2931 1356 
Q 2931 1769 2642 2001 
Q 2353 2234 1838 2234 
L 1294 2234 
L 1294 2753 
L 1863 2753 
Q 2328 2753 2575 2939 
Q 2822 3125 2822 3475 
Q 2822 3834 2567 4026 
Q 2313 4219 1838 4219 
Q 1578 4219 1281 4162 
Q 984 4106 628 3988 
L 628 4550 
Q 988 4650 1302 4700 
Q 1616 4750 1894 4750 
Q 2613 4750 3031 4423 
Q 3450 4097 3450 3541 
Q 3450 3153 3228 2886 
Q 3006 2619 2597 2516 
z
" transform="scale(0.015625)"/>
       </defs>
       <use xlink:href="#DejaVuSans-33"/>
      </g>
     </g>
    </g>
    <g id="xtick_5">
     <g id="line2d_5">
      <g>
       <use xlink:href="#m59323976d5" x="364.827273" y="320.4" style="stroke: #000000; stroke-width: 0.8"/>
      </g>
     </g>
     <g id="text_5">
      <!-- 4 -->
      <g transform="translate(361.646023 334.998438)scale(0.1 -0.1)">
       <defs>
        <path id="DejaVuSans-34" d="M 2419 4116 
L 825 1625 
L 2419 1625 
L 2419 4116 
z
M 2253 4666 
L 3047 4666 
L 3047 1625 
L 3713 1625 
L 3713 1100 
L 3047 1100 
L 3047 0 
L 2419 0 
L 2419 1100 
L 313 1100 
L 313 1709 
L 2253 4666 
z
" transform="scale(0.015625)"/>
       </defs>
       <use xlink:href="#DejaVuSans-34"/>
      </g>
     </g>
    </g>
    <g id="xtick_6">
     <g id="line2d_6">
      <g>
       <use xlink:href="#m59323976d5" x="435.845455" y="320.4" style="stroke: #000000; stroke-width: 0.8"/>
      </g>
     </g>
     <g id="text_6">
      <!-- 5 -->
      <g transform="translate(432.664205 334.998438)scale(0.1 -0.1)">
       <defs>
        <path id="DejaVuSans-35" d="M 691 4666 
L 3169 4666 
L 3169 4134 
L 1269 4134 
L 1269 2991 
Q 1406 3038 1543 3061 
Q 1681 3084 1819 3084 
Q 2600 3084 3056 2656 
Q 3513 2228 3513 1497 
Q 3513 744 3044 326 
Q 2575 -91 1722 -91 
Q 1428 -91 1123 -41 
Q 819 9 494 109 
L 494 744 
Q 775 591 1075 516 
Q 1375 441 1709 441 
Q 2250 441 2565 725 
Q 2881 1009 2881 1497 
Q 2881 1984 2565 2268 
Q 2250 2553 1709 2553 
Q 1456 2553 1204 2497 
Q 953 2441 691 2322 
L 691 4666 
z
" transform="scale(0.015625)"/>
       </defs>
       <use xlink:href="#DejaVuSans-35"/>
      </g>
     </g>
    </g>
    <g id="text_7">
     <!-- $\mu$ (POI) -->
     <g transform="translate(241.2 348.678125)scale(0.1 -0.1)">
      <defs>
       <path id="DejaVuSans-Oblique-3bc" d="M -84 -1331 
L 856 3500 
L 1434 3500 
L 1009 1322 
Q 997 1256 987 1175 
Q 978 1094 978 1013 
Q 978 722 1161 565 
Q 1344 409 1684 409 
Q 2147 409 2431 671 
Q 2716 934 2816 1459 
L 3213 3500 
L 3788 3500 
L 3266 809 
Q 3253 750 3248 706 
Q 3244 663 3244 628 
Q 3244 531 3283 486 
Q 3322 441 3406 441 
Q 3438 441 3492 456 
Q 3547 472 3647 513 
L 3559 50 
Q 3422 -19 3297 -55 
Q 3172 -91 3053 -91 
Q 2847 -91 2730 40 
Q 2613 172 2613 403 
Q 2438 153 2195 31 
Q 1953 -91 1625 -91 
Q 1334 -91 1117 43 
Q 900 178 831 397 
L 494 -1331 
L -84 -1331 
z
" transform="scale(0.015625)"/>
       <path id="DejaVuSans-20" transform="scale(0.015625)"/>
       <path id="DejaVuSans-28" d="M 1984 4856 
Q 1566 4138 1362 3434 
Q 1159 2731 1159 2009 
Q 1159 1288 1364 580 
Q 1569 -128 1984 -844 
L 1484 -844 
Q 1016 -109 783 600 
Q 550 1309 550 2009 
Q 550 2706 781 3412 
Q 1013 4119 1484 4856 
L 1984 4856 
z
" transform="scale(0.015625)"/>
       <path id="DejaVuSans-50" d="M 1259 4147 
L 1259 2394 
L 2053 2394 
Q 2494 2394 2734 2622 
Q 2975 2850 2975 3272 
Q 2975 3691 2734 3919 
Q 2494 4147 2053 4147 
L 1259 4147 
z
M 628 4666 
L 2053 4666 
Q 2838 4666 3239 4311 
Q 3641 3956 3641 3272 
Q 3641 2581 3239 2228 
Q 2838 1875 2053 1875 
L 1259 1875 
L 1259 0 
L 628 0 
L 628 4666 
z
" transform="scale(0.015625)"/>
       <path id="DejaVuSans-4f" d="M 2522 4238 
Q 1834 4238 1429 3725 
Q 1025 3213 1025 2328 
Q 1025 1447 1429 934 
Q 1834 422 2522 422 
Q 3209 422 3611 934 
Q 4013 1447 4013 2328 
Q 4013 3213 3611 3725 
Q 3209 4238 2522 4238 
z
M 2522 4750 
Q 3503 4750 4090 4092 
Q 4678 3434 4678 2328 
Q 4678 1225 4090 567 
Q 3503 -91 2522 -91 
Q 1538 -91 948 565 
Q 359 1222 359 2328 
Q 359 3434 948 4092 
Q 1538 4750 2522 4750 
z
" transform="scale(0.015625)"/>
       <path id="DejaVuSans-49" d="M 628 4666 
L 1259 4666 
L 1259 0 
L 628 0 
L 628 4666 
z
" transform="scale(0.015625)"/>
       <path id="DejaVuSans-29" d="M 513 4856 
L 1013 4856 
Q 1481 4119 1714 3412 
Q 1947 2706 1947 2009 
Q 1947 1309 1714 600 
Q 1481 -109 1013 -844 
L 513 -844 
Q 928 -128 1133 580 
Q 1338 1288 1338 2009 
Q 1338 2731 1133 3434 
Q 928 4138 513 4856 
z
" transform="scale(0.015625)"/>
      </defs>
      <use xlink:href="#DejaVuSans-Oblique-3bc" transform="translate(0 0.125)"/>
      <use xlink:href="#DejaVuSans-20" transform="translate(63.623047 0.125)"/>
      <use xlink:href="#DejaVuSans-28" transform="translate(95.410156 0.125)"/>
      <use xlink:href="#DejaVuSans-50" transform="translate(134.423828 0.125)"/>
      <use xlink:href="#DejaVuSans-4f" transform="translate(194.726562 0.125)"/>
      <use xlink:href="#DejaVuSans-49" transform="translate(273.4375 0.125)"/>
      <use xlink:href="#DejaVuSans-29" transform="translate(302.929688 0.125)"/>
     </g>
    </g>
   </g>
   <g id="matplotlib.axis_2">
    <g id="ytick_1">
     <g id="line2d_7">
      <defs>
       <path id="mbea0bfbf78" d="M 0 0 
L -3.5 0 
" style="stroke: #000000; stroke-width: 0.8"/>
      </defs>
      <g>
       <use xlink:href="#mbea0bfbf78" x="63" y="320.4" style="stroke: #000000; stroke-width: 0.8"/>
      </g>
     </g>
     <g id="text_8">
      <!-- 0.0 -->
      <g transform="translate(40.096875 324.199219)scale(0.1 -0.1)">
       <defs>
        <path id="DejaVuSans-2e" d="M 684 794 
L 1344 794 
L 1344 0 
L 684 0 
L 684 794 
z
" transform="scale(0.015625)"/>
       </defs>
       <use xlink:href="#DejaVuSans-30"/>
       <use xlink:href="#DejaVuSans-2e" x="63.623047"/>
       <use xlink:href="#DejaVuSans-30" x="95.410156"/>
      </g>
     </g>
    </g>
    <g id="ytick_2">
     <g id="line2d_8">
      <g>
       <use xlink:href="#mbea0bfbf78" x="63" y="264.96" style="stroke: #000000; stroke-width: 0.8"/>
      </g>
     </g>
     <g id="text_9">
      <!-- 0.2 -->
      <g transform="translate(40.096875 268.759219)scale(0.1 -0.1)">
       <use xlink:href="#DejaVuSans-30"/>
       <use xlink:href="#DejaVuSans-2e" x="63.623047"/>
       <use xlink:href="#DejaVuSans-32" x="95.410156"/>
      </g>
     </g>
    </g>
    <g id="ytick_3">
     <g id="line2d_9">
      <g>
       <use xlink:href="#mbea0bfbf78" x="63" y="209.52" style="stroke: #000000; stroke-width: 0.8"/>
      </g>
     </g>
     <g id="text_10">
      <!-- 0.4 -->
      <g transform="translate(40.096875 213.319219)scale(0.1 -0.1)">
       <use xlink:href="#DejaVuSans-30"/>
       <use xlink:href="#DejaVuSans-2e" x="63.623047"/>
       <use xlink:href="#DejaVuSans-34" x="95.410156"/>
      </g>
     </g>
    </g>
    <g id="ytick_4">
     <g id="line2d_10">
      <g>
       <use xlink:href="#mbea0bfbf78" x="63" y="154.08" style="stroke: #000000; stroke-width: 0.8"/>
      </g>
     </g>
     <g id="text_11">
      <!-- 0.6 -->
      <g transform="translate(40.096875 157.879219)scale(0.1 -0.1)">
       <defs>
        <path id="DejaVuSans-36" d="M 2113 2584 
Q 1688 2584 1439 2293 
Q 1191 2003 1191 1497 
Q 1191 994 1439 701 
Q 1688 409 2113 409 
Q 2538 409 2786 701 
Q 3034 994 3034 1497 
Q 3034 2003 2786 2293 
Q 2538 2584 2113 2584 
z
M 3366 4563 
L 3366 3988 
Q 3128 4100 2886 4159 
Q 2644 4219 2406 4219 
Q 1781 4219 1451 3797 
Q 1122 3375 1075 2522 
Q 1259 2794 1537 2939 
Q 1816 3084 2150 3084 
Q 2853 3084 3261 2657 
Q 3669 2231 3669 1497 
Q 3669 778 3244 343 
Q 2819 -91 2113 -91 
Q 1303 -91 875 529 
Q 447 1150 447 2328 
Q 447 3434 972 4092 
Q 1497 4750 2381 4750 
Q 2619 4750 2861 4703 
Q 3103 4656 3366 4563 
z
" transform="scale(0.015625)"/>
       </defs>
       <use xlink:href="#DejaVuSans-30"/>
       <use xlink:href="#DejaVuSans-2e" x="63.623047"/>
       <use xlink:href="#DejaVuSans-36" x="95.410156"/>
      </g>
     </g>
    </g>
    <g id="ytick_5">
     <g id="line2d_11">
      <g>
       <use xlink:href="#mbea0bfbf78" x="63" y="98.64" style="stroke: #000000; stroke-width: 0.8"/>
      </g>
     </g>
     <g id="text_12">
      <!-- 0.8 -->
      <g transform="translate(40.096875 102.439219)scale(0.1 -0.1)">
       <defs>
        <path id="DejaVuSans-38" d="M 2034 2216 
Q 1584 2216 1326 1975 
Q 1069 1734 1069 1313 
Q 1069 891 1326 650 
Q 1584 409 2034 409 
Q 2484 409 2743 651 
Q 3003 894 3003 1313 
Q 3003 1734 2745 1975 
Q 2488 2216 2034 2216 
z
M 1403 2484 
Q 997 2584 770 2862 
Q 544 3141 544 3541 
Q 544 4100 942 4425 
Q 1341 4750 2034 4750 
Q 2731 4750 3128 4425 
Q 3525 4100 3525 3541 
Q 3525 3141 3298 2862 
Q 3072 2584 2669 2484 
Q 3125 2378 3379 2068 
Q 3634 1759 3634 1313 
Q 3634 634 3220 271 
Q 2806 -91 2034 -91 
Q 1263 -91 848 271 
Q 434 634 434 1313 
Q 434 1759 690 2068 
Q 947 2378 1403 2484 
z
M 1172 3481 
Q 1172 3119 1398 2916 
Q 1625 2713 2034 2713 
Q 2441 2713 2670 2916 
Q 2900 3119 2900 3481 
Q 2900 3844 2670 4047 
Q 2441 4250 2034 4250 
Q 1625 4250 1398 4047 
Q 1172 3844 1172 3481 
z
" transform="scale(0.015625)"/>
       </defs>
       <use xlink:href="#DejaVuSans-30"/>
       <use xlink:href="#DejaVuSans-2e" x="63.623047"/>
       <use xlink:href="#DejaVuSans-38" x="95.410156"/>
      </g>
     </g>
    </g>
    <g id="ytick_6">
     <g id="line2d_12">
      <g>
       <use xlink:href="#mbea0bfbf78" x="63" y="43.2" style="stroke: #000000; stroke-width: 0.8"/>
      </g>
     </g>
     <g id="text_13">
      <!-- 1.0 -->
      <g transform="translate(40.096875 46.999219)scale(0.1 -0.1)">
       <use xlink:href="#DejaVuSans-31"/>
       <use xlink:href="#DejaVuSans-2e" x="63.623047"/>
       <use xlink:href="#DejaVuSans-30" x="95.410156"/>
      </g>
     </g>
    </g>
    <g id="text_14">
     <!-- $\mathrm{CL}_{s}$ -->
     <g transform="translate(34.017187 190.1)rotate(-90)scale(0.1 -0.1)">
      <defs>
       <path id="DejaVuSans-43" d="M 4122 4306 
L 4122 3641 
Q 3803 3938 3442 4084 
Q 3081 4231 2675 4231 
Q 1875 4231 1450 3742 
Q 1025 3253 1025 2328 
Q 1025 1406 1450 917 
Q 1875 428 2675 428 
Q 3081 428 3442 575 
Q 3803 722 4122 1019 
L 4122 359 
Q 3791 134 3420 21 
Q 3050 -91 2638 -91 
Q 1578 -91 968 557 
Q 359 1206 359 2328 
Q 359 3453 968 4101 
Q 1578 4750 2638 4750 
Q 3056 4750 3426 4639 
Q 3797 4528 4122 4306 
z
" transform="scale(0.015625)"/>
       <path id="DejaVuSans-4c" d="M 628 4666 
L 1259 4666 
L 1259 531 
L 3531 531 
L 3531 0 
L 628 0 
L 628 4666 
z
" transform="scale(0.015625)"/>
       <path id="DejaVuSans-Oblique-73" d="M 3200 3397 
L 3091 2853 
Q 2863 2978 2609 3040 
Q 2356 3103 2088 3103 
Q 1634 3103 1373 2948 
Q 1113 2794 1113 2528 
Q 1113 2219 1719 2053 
Q 1766 2041 1788 2034 
L 1972 1978 
Q 2547 1819 2739 1644 
Q 2931 1469 2931 1166 
Q 2931 609 2489 259 
Q 2047 -91 1331 -91 
Q 1053 -91 747 -37 
Q 441 16 72 128 
L 184 722 
Q 500 559 806 475 
Q 1113 391 1394 391 
Q 1816 391 2080 572 
Q 2344 753 2344 1031 
Q 2344 1331 1650 1516 
L 1591 1531 
L 1394 1581 
Q 956 1697 753 1886 
Q 550 2075 550 2369 
Q 550 2928 970 3256 
Q 1391 3584 2113 3584 
Q 2397 3584 2667 3537 
Q 2938 3491 3200 3397 
z
" transform="scale(0.015625)"/>
      </defs>
      <use xlink:href="#DejaVuSans-43" transform="translate(0 0.78125)"/>
      <use xlink:href="#DejaVuSans-4c" transform="translate(69.824219 0.78125)"/>
      <use xlink:href="#DejaVuSans-Oblique-73" transform="translate(126.494141 -15.625)scale(0.7)"/>
     </g>
    </g>
   </g>
   <g id="line2d_13">
    <path d="M 89.631818 67.846434 
L 98.509091 88.178499 
L 107.386364 104.99736 
L 116.263636 118.935891 
L 125.140909 138.559639 
L 134.018182 157.877138 
L 142.895455 176.608071 
L 151.772727 194.498829 
L 160.65 211.332712 
L 169.527273 226.937487 
L 178.404545 241.189807 
L 187.281818 254.016296 
L 196.159091 265.39187 
L 205.036364 275.3352 
L 213.913636 283.9024 
L 222.790909 291.179424 
L 231.668182 297.273933 
L 240.545455 302.307328 
L 249.422727 306.407381 
L 258.3 309.701929 
L 267.177273 312.313819 
L 276.054545 314.357171 
L 284.931818 315.934925 
L 293.809091 317.137531 
L 302.686364 318.04259 
L 311.563636 318.71523 
L 320.440909 319.208999 
L 329.318182 319.567084 
L 338.195455 319.82368 
L 347.072727 320.005402 
L 355.95 320.132617 
L 364.827273 320.220667 
L 373.704545 320.280931 
L 382.581818 320.321728 
L 391.459091 320.349049 
L 400.336364 320.367153 
L 409.213636 320.379025 
L 418.090909 320.386731 
L 426.968182 320.391683 
L 435.845455 320.394834 
" clip-path="url(#p318a4356af)" style="fill: none; stroke: #000000; stroke-width: 1.5; stroke-linecap: square"/>
   </g>
   <g id="line2d_14">
    <path d="M 80.754545 43.2 
L 89.631818 114.566301 
L 98.509091 169.57869 
L 107.386364 211.349907 
L 116.263636 242.594413 
L 125.140909 265.619485 
L 134.018182 282.338119 
L 142.895455 294.300765 
L 151.772727 302.736784 
L 160.65 308.600778 
L 169.527273 312.619254 
L 178.404545 315.334518 
L 187.281818 317.143842 
L 196.159091 318.333042 
L 205.036364 319.104133 
L 213.913636 319.59748 
L 222.790909 319.908994 
L 231.668182 320.10316 
L 240.545455 320.222648 
L 249.422727 320.295262 
L 258.3 320.338849 
L 267.177273 320.364697 
L 276.054545 320.379844 
L 284.931818 320.388617 
L 293.809091 320.39364 
L 302.686364 320.396483 
L 311.563636 320.398076 
L 320.440909 320.398958 
L 329.318182 320.399441 
L 338.195455 320.399703 
L 347.072727 320.399844 
L 355.95 320.399919 
L 364.827273 320.399958 
L 373.704545 320.399978 
L 382.581818 320.399989 
L 391.459091 320.399995 
L 400.336364 320.399997 
L 409.213636 320.399999 
L 418.090909 320.399999 
L 426.968182 320.4 
L 435.845455 320.4 
" clip-path="url(#p318a4356af)" style="fill: none; stroke-dasharray: 1.5,2.475; stroke-dashoffset: 0; stroke: #000000; stroke-width: 1.5"/>
   </g>
   <g id="line2d_15">
    <path d="M 80.754545 43.2 
L 89.631818 91.867785 
L 98.509091 134.269616 
L 107.386364 170.657103 
L 116.263636 201.41548 
L 125.140909 227.028363 
L 134.018182 248.040402 
L 142.895455 265.024253 
L 151.772727 278.551487 
L 160.65 289.169382 
L 169.527273 297.383873 
L 178.404545 303.648526 
L 187.281818 308.358834 
L 196.159091 311.85111 
L 205.036364 314.404662 
L 213.913636 316.246418 
L 222.790909 317.556954 
L 231.668182 318.477137 
L 240.545455 319.114797 
L 249.422727 319.550992 
L 258.3 319.84559 
L 267.177273 320.042074 
L 276.054545 320.171511 
L 284.931818 320.255751 
L 293.809091 320.309923 
L 302.686364 320.344355 
L 311.563636 320.365988 
L 320.440909 320.379426 
L 329.318182 320.387682 
L 338.195455 320.392699 
L 347.072727 320.395716 
L 355.95 320.39751 
L 364.827273 320.398567 
L 373.704545 320.399183 
L 382.581818 320.399538 
L 391.459091 320.399742 
L 400.336364 320.399857 
L 409.213636 320.399921 
L 418.090909 320.399957 
L 426.968182 320.399977 
L 435.845455 320.399988 
" clip-path="url(#p318a4356af)" style="fill: none; stroke-dasharray: 1.5,2.475; stroke-dashoffset: 0; stroke: #000000; stroke-width: 1.5"/>
   </g>
   <g id="line2d_16">
    <path d="M 80.754545 43.2 
L 89.631818 70.251653 
L 98.509091 96.890291 
L 107.386364 122.726548 
L 116.263636 147.407092 
L 125.140909 170.629982 
L 134.018182 192.154553 
L 142.895455 211.80816 
L 151.772727 229.487896 
L 160.65 245.158168 
L 169.527273 258.844617 
L 178.404545 270.625299 
L 187.281818 280.619954 
L 196.159091 288.978775 
L 205.036364 295.871063 
L 213.913636 301.474951 
L 222.790909 305.968532 
L 231.668182 309.522761 
L 240.545455 312.296223 
L 249.422727 314.43173 
L 258.3 316.054513 
L 267.177273 317.271769 
L 276.054545 318.173231 
L 284.931818 318.832466 
L 293.809091 319.30862 
L 302.686364 319.648363 
L 311.563636 319.88788 
L 320.440909 320.054757 
L 329.318182 320.169681 
L 338.195455 320.247928 
L 347.072727 320.300608 
L 355.95 320.335688 
L 364.827273 320.358795 
L 373.704545 320.373856 
L 382.581818 320.38357 
L 391.459091 320.389771 
L 400.336364 320.393691 
L 409.213636 320.396144 
L 418.090909 320.397664 
L 426.968182 320.398597 
L 435.845455 320.399165 
" clip-path="url(#p318a4356af)" style="fill: none; stroke-dasharray: 5.55,2.4; stroke-dashoffset: 0; stroke: #000000; stroke-width: 1.5"/>
   </g>
   <g id="line2d_17">
    <path d="M 80.754545 43.2 
L 89.631818 53.57306 
L 98.509091 65.118218 
L 107.386364 77.773357 
L 116.263636 91.435063 
L 125.140909 105.960587 
L 134.018182 121.171567 
L 142.895455 136.860853 
L 151.772727 152.801118 
L 160.65 168.754972 
L 169.527273 184.485732 
L 178.404545 199.768082 
L 187.281818 214.397601 
L 196.159091 228.198977 
L 205.036364 241.031739 
L 213.913636 252.793747 
L 222.790909 263.42215 
L 231.668182 272.89204 
L 240.545455 281.213113 
L 249.422727 288.4249 
L 258.3 294.590963 
L 267.177273 299.792714 
L 276.054545 304.123284 
L 284.931818 307.681831 
L 293.809091 310.568604 
L 302.686364 312.880913 
L 311.563636 314.710085 
L 320.440909 316.139377 
L 329.318182 317.242766 
L 338.195455 318.084472 
L 347.072727 318.719074 
L 355.95 319.192042 
L 364.827273 319.540571 
L 373.704545 319.794554 
L 382.581818 319.97762 
L 391.459091 320.108157 
L 400.336364 320.200258 
L 409.213636 320.264568 
L 418.090909 320.309017 
L 426.968182 320.339431 
L 435.845455 320.360038 
" clip-path="url(#p318a4356af)" style="fill: none; stroke-dasharray: 1.5,2.475; stroke-dashoffset: 0; stroke: #000000; stroke-width: 1.5"/>
   </g>
   <g id="line2d_18">
    <path d="M 80.754545 43.2 
L 89.631818 45.322469 
L 98.509091 47.992453 
L 107.386364 51.300142 
L 116.263636 55.335432 
L 125.140909 60.183469 
L 134.018182 65.919311 
L 142.895455 72.602442 
L 151.772727 80.271277 
L 160.65 88.938239 
L 169.527273 98.585825 
L 178.404545 109.164167 
L 187.281818 120.590252 
L 196.159091 132.749375 
L 205.036364 145.498386 
L 213.913636 158.670942 
L 222.790909 172.084279 
L 231.668182 185.547051 
L 240.545455 198.86763 
L 249.422727 211.862377 
L 258.3 224.363085 
L 267.177273 236.223308 
L 276.054545 247.323084 
L 284.931818 257.571864 
L 293.809091 266.909611 
L 302.686364 275.306158 
L 311.563636 282.759072 
L 320.440909 289.290337 
L 329.318182 294.942234 
L 338.195455 299.772793 
L 347.072727 303.851175 
L 355.95 307.253269 
L 364.827273 310.057767 
L 373.704545 312.342812 
L 382.581818 314.183355 
L 391.459091 315.649208 
L 400.336364 316.803745 
L 409.213636 317.703196 
L 418.090909 318.39643 
L 426.968182 318.925108 
L 435.845455 319.324125 
" clip-path="url(#p318a4356af)" style="fill: none; stroke-dasharray: 1.5,2.475; stroke-dashoffset: 0; stroke: #000000; stroke-width: 1.5"/>
   </g>
   <g id="line2d_19">
    <path d="M 80.754545 306.54 
L 89.631818 306.54 
L 98.509091 306.54 
L 107.386364 306.54 
L 116.263636 306.54 
L 125.140909 306.54 
L 134.018182 306.54 
L 142.895455 306.54 
L 151.772727 306.54 
L 160.65 306.54 
L 169.527273 306.54 
L 178.404545 306.54 
L 187.281818 306.54 
L 196.159091 306.54 
L 205.036364 306.54 
L 213.913636 306.54 
L 222.790909 306.54 
L 231.668182 306.54 
L 240.545455 306.54 
L 249.422727 306.54 
L 258.3 306.54 
L 267.177273 306.54 
L 276.054545 306.54 
L 284.931818 306.54 
L 293.809091 306.54 
L 302.686364 306.54 
L 311.563636 306.54 
L 320.440909 306.54 
L 329.318182 306.54 
L 338.195455 306.54 
L 347.072727 306.54 
L 355.95 306.54 
L 364.827273 306.54 
L 373.704545 306.54 
L 382.581818 306.54 
L 391.459091 306.54 
L 400.336364 306.54 
L 409.213636 306.54 
L 418.090909 306.54 
L 426.968182 306.54 
L 435.845455 306.54 
" clip-path="url(#p318a4356af)" style="fill: none; stroke: #ff0000; stroke-width: 1.5; stroke-linecap: square"/>
   </g>
   <g id="patch_3">
    <path d="M 63 320.4 
L 63 43.2 
" style="fill: none; stroke: #000000; stroke-width: 0.8; stroke-linejoin: miter; stroke-linecap: square"/>
   </g>
   <g id="patch_4">
    <path d="M 453.6 320.4 
L 453.6 43.2 
" style="fill: none; stroke: #000000; stroke-width: 0.8; stroke-linejoin: miter; stroke-linecap: square"/>
   </g>
   <g id="patch_5">
    <path d="M 63 320.4 
L 453.6 320.4 
" style="fill: none; stroke: #000000; stroke-width: 0.8; stroke-linejoin: miter; stroke-linecap: square"/>
   </g>
   <g id="patch_6">
    <path d="M 63 43.2 
L 453.6 43.2 
" style="fill: none; stroke: #000000; stroke-width: 0.8; stroke-linejoin: miter; stroke-linecap: square"/>
   </g>
   <g id="legend_1">
    <g id="patch_7">
     <path d="M 357.2 127.651562 
L 446.6 127.651562 
Q 448.6 127.651562 448.6 125.651562 
L 448.6 50.2 
Q 448.6 48.2 446.6 48.2 
L 357.2 48.2 
Q 355.2 48.2 355.2 50.2 
L 355.2 125.651562 
Q 355.2 127.651562 357.2 127.651562 
z
" style="fill: #ffffff; opacity: 0.8; stroke: #cccccc; stroke-linejoin: miter"/>
    </g>
    <g id="line2d_20">
     <path d="M 359.2 56.298437 
L 369.2 56.298437 
L 379.2 56.298437 
" style="fill: none; stroke: #000000; stroke-width: 1.5; stroke-linecap: square"/>
    </g>
    <g id="text_15">
     <!-- $\mathrm{CL}_{s}$ -->
     <g transform="translate(387.2 59.798437)scale(0.1 -0.1)">
      <use xlink:href="#DejaVuSans-43" transform="translate(0 0.78125)"/>
      <use xlink:href="#DejaVuSans-4c" transform="translate(69.824219 0.78125)"/>
      <use xlink:href="#DejaVuSans-Oblique-73" transform="translate(126.494141 -15.625)scale(0.7)"/>
     </g>
    </g>
    <g id="line2d_21">
     <path d="M 359.2 70.976562 
L 369.2 70.976562 
L 379.2 70.976562 
" style="fill: none; stroke-dasharray: 5.55,2.4; stroke-dashoffset: 0; stroke: #000000; stroke-width: 1.5"/>
    </g>
    <g id="text_16">
     <!-- $\mathrm{CL}_{s,\mathrm{exp}}$ -->
     <g transform="translate(387.2 74.476562)scale(0.1 -0.1)">
      <defs>
       <path id="DejaVuSans-2c" d="M 750 794 
L 1409 794 
L 1409 256 
L 897 -744 
L 494 -744 
L 750 256 
L 750 794 
z
" transform="scale(0.015625)"/>
       <path id="DejaVuSans-65" d="M 3597 1894 
L 3597 1613 
L 953 1613 
Q 991 1019 1311 708 
Q 1631 397 2203 397 
Q 2534 397 2845 478 
Q 3156 559 3463 722 
L 3463 178 
Q 3153 47 2828 -22 
Q 2503 -91 2169 -91 
Q 1331 -91 842 396 
Q 353 884 353 1716 
Q 353 2575 817 3079 
Q 1281 3584 2069 3584 
Q 2775 3584 3186 3129 
Q 3597 2675 3597 1894 
z
M 3022 2063 
Q 3016 2534 2758 2815 
Q 2500 3097 2075 3097 
Q 1594 3097 1305 2825 
Q 1016 2553 972 2059 
L 3022 2063 
z
" transform="scale(0.015625)"/>
       <path id="DejaVuSans-78" d="M 3513 3500 
L 2247 1797 
L 3578 0 
L 2900 0 
L 1881 1375 
L 863 0 
L 184 0 
L 1544 1831 
L 300 3500 
L 978 3500 
L 1906 2253 
L 2834 3500 
L 3513 3500 
z
" transform="scale(0.015625)"/>
       <path id="DejaVuSans-70" d="M 1159 525 
L 1159 -1331 
L 581 -1331 
L 581 3500 
L 1159 3500 
L 1159 2969 
Q 1341 3281 1617 3432 
Q 1894 3584 2278 3584 
Q 2916 3584 3314 3078 
Q 3713 2572 3713 1747 
Q 3713 922 3314 415 
Q 2916 -91 2278 -91 
Q 1894 -91 1617 61 
Q 1341 213 1159 525 
z
M 3116 1747 
Q 3116 2381 2855 2742 
Q 2594 3103 2138 3103 
Q 1681 3103 1420 2742 
Q 1159 2381 1159 1747 
Q 1159 1113 1420 752 
Q 1681 391 2138 391 
Q 2594 391 2855 752 
Q 3116 1113 3116 1747 
z
" transform="scale(0.015625)"/>
      </defs>
      <use xlink:href="#DejaVuSans-43" transform="translate(0 0.78125)"/>
      <use xlink:href="#DejaVuSans-4c" transform="translate(69.824219 0.78125)"/>
      <use xlink:href="#DejaVuSans-Oblique-73" transform="translate(126.494141 -15.625)scale(0.7)"/>
      <use xlink:href="#DejaVuSans-2c" transform="translate(162.963867 -15.625)scale(0.7)"/>
      <use xlink:href="#DejaVuSans-65" transform="translate(198.852539 -15.625)scale(0.7)"/>
      <use xlink:href="#DejaVuSans-78" transform="translate(241.918945 -15.625)scale(0.7)"/>
      <use xlink:href="#DejaVuSans-70" transform="translate(283.344727 -15.625)scale(0.7)"/>
     </g>
    </g>
    <g id="patch_8">
     <path d="M 359.2 90.175 
L 379.2 90.175 
L 379.2 83.175 
L 359.2 83.175 
z
" style="fill: #008000"/>
    </g>
    <g id="text_17">
     <!-- $\pm1\sigma$ $\mathrm{CL}_{s,\mathrm{exp}}$ -->
     <g transform="translate(387.2 90.175)scale(0.1 -0.1)">
      <defs>
       <path id="DejaVuSans-b1" d="M 2944 4013 
L 2944 2803 
L 4684 2803 
L 4684 2272 
L 2944 2272 
L 2944 1063 
L 2419 1063 
L 2419 2272 
L 678 2272 
L 678 2803 
L 2419 2803 
L 2419 4013 
L 2944 4013 
z
M 678 531 
L 4684 531 
L 4684 0 
L 678 0 
L 678 531 
z
" transform="scale(0.015625)"/>
       <path id="DejaVuSans-Oblique-3c3" d="M 2219 3044 
Q 1744 3044 1422 2700 
Q 1081 2341 969 1747 
Q 844 1119 1044 756 
Q 1241 397 1706 397 
Q 2166 397 2503 759 
Q 2844 1122 2966 1747 
Q 3075 2319 2881 2700 
Q 2700 3044 2219 3044 
z
M 2309 3503 
L 4219 3500 
L 4106 2925 
L 3463 2925 
Q 3706 2438 3575 1747 
Q 3406 888 2884 400 
Q 2359 -91 1609 -91 
Q 856 -91 525 400 
Q 194 888 363 1747 
Q 528 2609 1050 3097 
Q 1484 3503 2309 3503 
z
" transform="scale(0.015625)"/>
      </defs>
      <use xlink:href="#DejaVuSans-b1" transform="translate(0 0.78125)"/>
      <use xlink:href="#DejaVuSans-31" transform="translate(83.789062 0.78125)"/>
      <use xlink:href="#DejaVuSans-Oblique-3c3" transform="translate(147.412109 0.78125)"/>
      <use xlink:href="#DejaVuSans-20" transform="translate(210.791016 0.78125)"/>
      <use xlink:href="#DejaVuSans-43" transform="translate(242.578125 0.78125)"/>
      <use xlink:href="#DejaVuSans-4c" transform="translate(312.402344 0.78125)"/>
      <use xlink:href="#DejaVuSans-Oblique-73" transform="translate(369.072266 -15.625)scale(0.7)"/>
      <use xlink:href="#DejaVuSans-2c" transform="translate(405.541992 -15.625)scale(0.7)"/>
      <use xlink:href="#DejaVuSans-65" transform="translate(441.430664 -15.625)scale(0.7)"/>
      <use xlink:href="#DejaVuSans-78" transform="translate(484.49707 -15.625)scale(0.7)"/>
      <use xlink:href="#DejaVuSans-70" transform="translate(525.922852 -15.625)scale(0.7)"/>
     </g>
    </g>
    <g id="patch_9">
     <path d="M 359.2 105.873437 
L 379.2 105.873437 
L 379.2 98.873437 
L 359.2 98.873437 
z
" style="fill: #ffff00"/>
    </g>
    <g id="text_18">
     <!-- $\pm2\sigma$ $\mathrm{CL}_{s,\mathrm{exp}}$ -->
     <g transform="translate(387.2 105.873437)scale(0.1 -0.1)">
      <use xlink:href="#DejaVuSans-b1" transform="translate(0 0.78125)"/>
      <use xlink:href="#DejaVuSans-32" transform="translate(83.789062 0.78125)"/>
      <use xlink:href="#DejaVuSans-Oblique-3c3" transform="translate(147.412109 0.78125)"/>
      <use xlink:href="#DejaVuSans-20" transform="translate(210.791016 0.78125)"/>
      <use xlink:href="#DejaVuSans-43" transform="translate(242.578125 0.78125)"/>
      <use xlink:href="#DejaVuSans-4c" transform="translate(312.402344 0.78125)"/>
      <use xlink:href="#DejaVuSans-Oblique-73" transform="translate(369.072266 -15.625)scale(0.7)"/>
      <use xlink:href="#DejaVuSans-2c" transform="translate(405.541992 -15.625)scale(0.7)"/>
      <use xlink:href="#DejaVuSans-65" transform="translate(441.430664 -15.625)scale(0.7)"/>
      <use xlink:href="#DejaVuSans-78" transform="translate(484.49707 -15.625)scale(0.7)"/>
      <use xlink:href="#DejaVuSans-70" transform="translate(525.922852 -15.625)scale(0.7)"/>
     </g>
    </g>
    <g id="line2d_22">
     <path d="M 359.2 118.071875 
L 369.2 118.071875 
L 379.2 118.071875 
" style="fill: none; stroke: #ff0000; stroke-width: 1.5; stroke-linecap: square"/>
    </g>
    <g id="text_19">
     <!-- $\alpha=0.05$ -->
     <g transform="translate(387.2 121.571875)scale(0.1 -0.1)">
      <defs>
       <path id="DejaVuSans-Oblique-3b1" d="M 2619 1628 
L 2622 2350 
Q 2625 3088 2069 3091 
Q 1653 3094 1394 2747 
Q 1069 2319 959 1747 
Q 825 1059 994 731 
Q 1169 397 1547 397 
Q 1966 397 2319 1063 
L 2619 1628 
z
M 2166 3578 
Q 3141 3594 3128 2584 
Q 3128 2584 3616 3500 
L 4128 3500 
L 3119 1603 
L 3109 919 
Q 3109 766 3194 638 
Q 3291 488 3391 488 
L 3669 488 
L 3575 0 
L 3228 0 
Q 2934 0 2722 263 
Q 2622 394 2619 669 
Q 2416 334 2066 50 
Q 1900 -81 1453 -78 
Q 722 -72 456 397 
Q 184 884 353 1747 
Q 534 2675 1009 3097 
Q 1544 3569 2166 3578 
z
" transform="scale(0.015625)"/>
       <path id="DejaVuSans-3d" d="M 678 2906 
L 4684 2906 
L 4684 2381 
L 678 2381 
L 678 2906 
z
M 678 1631 
L 4684 1631 
L 4684 1100 
L 678 1100 
L 678 1631 
z
" transform="scale(0.015625)"/>
      </defs>
      <use xlink:href="#DejaVuSans-Oblique-3b1" transform="translate(0 0.78125)"/>
      <use xlink:href="#DejaVuSans-3d" transform="translate(85.400391 0.78125)"/>
      <use xlink:href="#DejaVuSans-30" transform="translate(188.671875 0.78125)"/>
      <use xlink:href="#DejaVuSans-2e" transform="translate(252.294922 0.78125)"/>
      <use xlink:href="#DejaVuSans-30" transform="translate(284.082031 0.78125)"/>
      <use xlink:href="#DejaVuSans-35" transform="translate(347.705078 0.78125)"/>
     </g>
    </g>
   </g>
  </g>
 </g>
 <defs>
  <clipPath id="p318a4356af">
   <rect x="63" y="43.2" width="390.6" height="277.2"/>
  </clipPath>
 </defs>
</svg>
